<svg version="1.0" xmlns="http://www.w3.org/2000/svg"
 width="225.000000pt" height="160.000000pt" viewBox="0 0 225.000000 160.000000"
 preserveAspectRatio="xMidYMid meet">

<!-- ✅ CSS com Media Query para Dark/Light Mode -->
<style>
  .logo-fill {
    fill: #0f3d18;
    transition: fill 0.3s ease;
  }
  
  @media (prefers-color-scheme: dark) {
    .logo-fill {
      fill: #5cb85c
    }
  }
  
  .logo-bg {
    fill: transparent;
  }
</style>

<!-- Background opcional -->
<rect class="logo-bg" width="100%" height="100%" />

<!-- Grupo principal com a cor dinâmica -->
<g transform="translate(0.000000,160.000000) scale(0.100000,-0.100000)" stroke="none">
  <path class="logo-fill" d="M1211 1337 c-13 -62 -24 -116 -25 -121 0 -5 26 -16 58 -23 48 -11 61
-11 67 -1 6 10 -4 16 -39 24 -44 10 -47 12 -44 40 4 45 10 56 29 51 60 -16 73
-17 73 -3 0 16 -21 26 -54 26 -32 0 -35 6 -23 46 11 37 16 39 64 25 24 -7 33
-6 37 5 5 13 -10 19 -94 38 -25 5 -26 4 -49 -107z"/>
  
  <path class="logo-fill" d="M857 1433 c-24 -4 -28 -8 -23 -26 3 -12 13 -68 22 -124 l16 -102 32
5 c95 17 125 40 133 102 7 51 -12 106 -44 132 -25 20 -65 23 -136 13z m130
-62 c36 -54 25 -118 -24 -140 -53 -24 -60 -18 -77 75 -9 48 -13 90 -10 96 3 5
24 8 47 6 34 -2 45 -9 64 -37z"/>
  
  <path class="logo-fill" d="M588 1324 c-6 -6 76 -129 93 -139 5 -4 9 -10 9 -15 0 -5 -45 11 -100
35 -89 39 -130 47 -130 26 0 -13 132 -196 141 -195 5 1 14 2 19 3 6 0 -15 37
-46 81 -30 44 -54 80 -51 80 2 0 31 -12 63 -26 142 -63 142 -63 153 -50 8 9
-6 38 -56 109 -61 89 -80 107 -95 91z"/>
  
  <path class="logo-fill" d="M1507 1245 c-75 -94 -84 -110 -64 -118 8 -3 33 22 67 68 30 41 56 72
58 71 2 -2 -11 -46 -27 -97 -23 -71 -28 -95 -18 -101 20 -13 26 -10 108 48 77
54 97 61 61 20 -10 -12 -35 -44 -55 -72 -31 -43 -35 -54 -23 -63 11 -9 27 9
85 93 68 100 70 106 51 116 -17 9 -33 2 -106 -50 -47 -34 -88 -60 -90 -57 -2
2 10 47 27 100 49 155 27 167 -74 42z"/>
  
  <path class="logo-fill" d="M750 1024 c-59 -42 -101 -86 -145 -154 -55 -84 -85 -172 -92 -266
l-6 -76 40 21 c23 11 76 30 119 41 44 11 83 22 88 23 5 2 -25 16 -68 31 -42
16 -75 31 -72 33 3 3 43 0 90 -7 47 -6 90 -9 97 -4 8 4 9 3 5 -4 -5 -8 2 -12
21 -12 27 0 27 0 -12 26 -55 37 -65 48 -38 41 14 -3 21 -1 20 7 -1 6 5 10 13
8 8 -2 -1 13 -19 32 -34 35 -48 45 -36 27 3 -5 1 -12 -4 -15 -5 -4 -8 2 -6 11
1 10 -9 31 -24 47 -22 25 -23 28 -6 22 11 -4 24 -8 30 -9 5 -1 15 -8 21 -16 9
-11 11 -11 11 3 0 8 -8 18 -17 21 -19 6 -23 36 -6 48 8 6 7 10 -1 14 -16 6
-17 39 -3 48 6 4 7 11 4 17 -4 6 -10 5 -15 -3 -6 -10 -9 -10 -9 -2 0 7 15 26
33 42 38 37 34 38 -13 5z m39 -268 c8 -9 8 -16 2 -20 -5 -4 -12 -2 -16 4 -4 6
-11 8 -16 5 -5 -3 -6 1 -3 9 8 20 18 20 33 2z"/>
  
  <path class="logo-fill" d="M253 991 c-10 -16 -1 -31 74 -116 60 -68 89 -93 96 -86 8 8 4 18 -12
35 l-23 24 27 41 c24 39 28 41 59 36 24 -5 35 -3 39 8 4 11 -21 20 -109 41
-62 14 -119 29 -126 31 -7 3 -18 -3 -25 -14z m103 -37 l54 -15 -17 -30 c-10
-16 -20 -29 -24 -29 -6 0 -79 79 -79 86 0 6 9 5 66 -12z"/>
  
  <path class="logo-fill" d="M1802 944 l-102 -56 21 -37 c35 -58 60 -81 89 -81 30 0 60 27 60 53
0 14 6 16 25 11 34 -8 75 19 75 51 0 30 -40 115 -54 115 -6 -1 -57 -26 -114
-56z m128 -15 c23 -55 -20 -90 -59 -48 -28 30 -26 45 7 63 37 21 38 20 52 -15z
m-95 -49 c19 -37 19 -45 -1 -64 -21 -22 -31 -20 -59 9 -32 31 -31 46 3 67 36
23 39 23 57 -12z"/>
  
  <path class="logo-fill" d="M810 710 c0 -5 5 -10 11 -10 5 0 7 5 4 10 -3 6 -8 10 -11 10 -2 0 -4
-4 -4 -10z"/>
  
  <path class="logo-fill" d="M126 674 c-3 -9 -6 -18 -6 -20 0 -4 81 -43 167 -80 46 -19 40 -23
-87 -51 -73 -16 -85 -22 -88 -41 -2 -12 0 -22 5 -22 4 0 48 -7 98 -15 113 -19
135 -19 135 -1 0 10 -18 17 -57 21 -147 18 -147 18 -35 44 136 31 137 44 10
105 l-93 44 60 -4 c33 -3 77 -6 98 -8 31 -4 37 -1 37 15 0 17 -9 19 -87 20
-49 1 -102 3 -120 5 -21 2 -33 -1 -37 -12z"/>
  
  <path class="logo-fill" d="M1884 636 c-60 -27 -81 -93 -50 -155 18 -35 55 -51 114 -51 38 0 55
6 85 31 33 27 37 35 37 78 0 39 -5 52 -30 76 -35 34 -107 43 -156 21z m139
-44 c19 -16 23 -63 7 -91 -23 -43 -120 -52 -161 -15 -42 38 -10 116 51 126 37
6 83 -3 103 -20z"/>
  
  <path class="logo-fill" d="M880 584 c-8 -1 -48 -8 -87 -14 -45 -7 -73 -17 -73 -24 0 -7 13 -25
29 -40 l30 -28 83 15 c46 9 105 19 132 22 l48 7 -33 34 c-27 28 -40 34 -73 33
-23 -1 -48 -3 -56 -5z"/>
  
  <path class="logo-fill" d="M1045 569 c11 -13 25 -29 32 -36 8 -10 53 -13 165 -13 l153 0 -31 31
-31 30 -154 6 -154 6 20 -24z"/>
  
  <path class="logo-fill" d="M1410 563 c0 -5 11 -20 25 -33 26 -25 56 -24 175 3 l55 13 -105 8
c-58 4 -115 10 -127 13 -13 3 -23 1 -23 -4z"/>
  
  <path class="logo-fill" d="M582 511 c-40 -16 -84 -37 -98 -46 l-26 -17 37 -38 38 -39 51 29 c28
15 74 36 101 46 28 9 52 19 54 21 7 5 -62 73 -73 73 -6 -1 -44 -14 -84 -29z"/>
  
  <path class="logo-fill" d="M990 484 c-130 -19 -170 -28 -170 -38 0 -7 15 -27 34 -45 l33 -32 74
15 c41 8 98 18 127 22 28 3 52 10 52 13 0 4 -15 21 -33 39 -33 32 -50 35 -117
26z"/>
  
  <path class="logo-fill" d="M1130 485 c0 -9 74 -75 84 -75 7 0 49 15 94 34 78 32 81 34 51 40
-36 7 -229 8 -229 1z"/>
  
  <path class="logo-fill" d="M728 430 c-42 -12 -168 -72 -168 -79 0 -4 20 -23 44 -44 l44 -37 74
34 c40 18 86 39 102 45 l29 12 -38 39 c-41 42 -44 43 -87 30z"/>
  
  <path class="logo-fill" d="M1020 363 c-46 -7 -88 -17 -92 -21 -4 -4 10 -25 32 -47 35 -34 41
-37 58 -24 11 8 50 36 88 62 68 47 68 48 34 45 -19 -1 -73 -8 -120 -15z"/>
  
  <path class="logo-fill" d="M781 300 c-106 -42 -110 -47 -62 -94 l39 -38 101 43 101 43 -37 38
c-20 21 -44 38 -53 38 -8 -1 -48 -14 -89 -30z"/>
  
  <path class="logo-fill" d="M886 190 c-93 -39 -97 -44 -61 -80 l30 -29 53 69 c28 39 51 70 50 69
-2 0 -34 -13 -72 -29z"/>
</g>
</svg>
